# xmcd
#
# Track frame offsets:
#	180
#	14993
#	31369
#	44266
#	57762
#	71825
#	84798
#	102747
#	116302
#	132491
#	145346
#	161903
#
# Disc length: 2264 seconds
#
# Revision: 1
# Processed by: cddbd v1.4PL0 Copyright (c) Steve Scherf et al.
# Submitted via: EasyCDDAExtractor 5.1.0
#
DISCID=ae08d60c
DTITLE=Sam Johnson and Brad Bahler - Old Time Gospel Volume 3
DYEAR=1995
DGENRE=Bluegrass
TTITLE0=Will The Circle Be Unbroken
TTITLE1=Precious Memories
TTITLE2=Uncloudy Day
TTITLE3=On The Wings Of A Dove
TTITLE4=There Is A Fountain
TTITLE5=Wait A Little Longer Please Jesus
TTITLE6=Life's Railway To Heaven
TTITLE7=In The Sweet Bye And Bye
TTITLE8=Farther Along
TTITLE9=A Beautiful Life
TTITLE10=Just A Closer Walk With Thee
TTITLE11=I'll Fly Away
EXTD=
EXTT0=
EXTT1=
EXTT2=
EXTT3=
EXTT4=
EXTT5=
EXTT6=
EXTT7=
EXTT8=
EXTT9=
EXTT10=
EXTT11=
PLAYORDER=
